<svg width="60" height="17" viewBox="0 0 60 17" fill="none" xmlns="http://www.w3.org/2000/svg">
<rect width="59.6707" height="16.3721" fill="black" fill-opacity="0" transform="translate(0 0.62793)"/>
<path fill-rule="evenodd" clip-rule="evenodd" d="M41.8529 11.1797H43.5215V13.6741H41.257C40.522 13.6741 39.9063 13.5355 39.4097 13.2584C38.9131 12.9812 38.5555 12.6249 38.3172 12.1695C38.0788 11.734 37.9596 11.2787 37.9596 10.8036V6.6264V4.34976V2.35026L41.1974 1.499V5.22082H43.5413V7.49747H41.2173V10.6056C41.1974 10.9817 41.4159 11.1797 41.8529 11.1797ZM33.3909 5.20102H36.6287V13.6741H33.3909V5.20102ZM33.3512 0.62793H36.6089V3.10255H33.3512V0.62793ZM29.5771 13.6741H26.3393V6.6264V4.34976V3.49849C26.3393 3.02336 26.4585 2.56803 26.6969 2.1325C26.9352 1.69696 27.2928 1.32082 27.7894 1.04367C28.286 0.766508 28.9017 0.62793 29.6367 0.62793H32.0005V3.12234H30.2326C29.7956 3.12234 29.5771 3.32031 29.5771 3.71625V5.20102H32.0005V7.47767H29.5771V13.6741ZM24.1742 12.5457C23.32 13.3772 22.1679 13.7929 20.7576 13.7929C19.3274 13.7929 18.1753 13.3772 17.341 12.5457C17.0431 12.2685 16.8246 11.9518 16.6458 11.6152C16.467 11.2787 16.3479 10.9025 16.2883 10.467C16.2088 10.0315 16.1889 9.49696 16.1889 8.82386C16.1889 8.17056 16.2287 7.61625 16.2883 7.18072C16.3677 6.74518 16.4869 6.36904 16.6458 6.0325C16.8246 5.69595 17.0431 5.3792 17.341 5.10204C17.7185 4.74569 18.1753 4.44874 18.7315 4.21118C19.2877 3.97361 19.9631 3.85483 20.7576 3.85483C21.5522 3.85483 22.2077 3.97361 22.7837 4.21118C23.3399 4.44874 23.8166 4.74569 24.194 5.10204C24.631 5.53757 24.929 6.03249 25.1078 6.56701C25.2667 7.12133 25.366 7.85381 25.366 8.80407C25.366 9.75432 25.2865 10.5066 25.1078 11.0609C24.929 11.6152 24.6112 12.1102 24.1742 12.5457ZM22.009 7.51727C21.9494 7.20051 21.8302 6.98275 21.6316 6.80458C21.433 6.6264 21.1549 6.52742 20.7576 6.52742C20.3802 6.52742 20.0822 6.6264 19.8836 6.80458C19.685 6.98275 19.5658 7.24011 19.5062 7.55686C19.4466 7.87361 19.4069 8.30914 19.4069 8.82386C19.4069 9.33858 19.4466 9.75432 19.5062 10.0711C19.5658 10.3878 19.685 10.6452 19.8836 10.8234C20.0822 11.0015 20.3802 11.1005 20.7576 11.1005C21.135 11.1005 21.433 11.0015 21.6316 10.8234C21.8302 10.6452 21.9494 10.4076 22.009 10.1107C22.0686 9.81371 22.1083 9.37818 22.1083 8.80407C22.0885 8.24975 22.0686 7.81422 22.009 7.51727ZM13.8848 6.36904C13.4478 6.36904 13.2292 6.56701 13.2292 6.96295V13.6741H9.99146V7.59645V6.74518C9.99146 6.27006 10.1106 5.81473 10.349 5.3792C10.5874 4.94366 10.9449 4.56752 11.4415 4.29036C11.9381 4.01321 12.5539 3.87463 13.2888 3.87463H16.1492L15.5136 6.36904H13.8848ZM8.18386 12.2091C7.03176 13.4761 5.14471 13.7731 3.23779 13.6543V17H0C0 17 0 4.50813 0 3.89442C2.64188 3.87463 4.62825 3.87463 5.60157 3.87463C6.67422 3.87463 7.52836 4.17158 8.18386 4.74569C8.601 5.14163 8.87909 5.61676 8.99827 6.21067C9.11746 6.80458 9.17705 7.51727 9.17705 8.38833V8.84366V9.29899C9.17705 10.1701 9.11746 10.2096 8.99827 10.7838C8.87909 11.3381 8.56127 11.7934 8.18386 12.2091ZM4.96594 6.21067C4.5488 6.21067 3.85357 6.23046 3.41656 6.23046L3.21793 6.30965V11.2985C3.21793 11.2985 3.53575 11.3183 4.46934 11.3183C5.14471 11.3183 5.60157 10.9619 5.83994 10.566C6.0783 10.1701 6.21735 9.43757 6.21735 8.48732C6.21735 6.90356 5.95912 6.21067 4.96594 6.21067Z" fill="white"/>
<path d="M49.1032 6.44825C49.3415 6.30967 49.6395 6.23048 49.997 6.23048C50.3546 6.23048 50.6525 6.30967 50.8909 6.44825C51.1293 6.58683 51.308 6.765 51.4074 6.98277C51.5265 7.20054 51.5861 7.4579 51.5861 7.73505H48.4278C48.4278 7.4381 48.4874 7.20054 48.6066 6.98277C48.7059 6.7848 48.8648 6.58683 49.1032 6.44825Z" fill="white"/>
<path d="M59.3131 10.3285L54.5061 15.1589C54.2677 15.3767 53.9499 15.5153 53.6122 15.5153C53.2746 15.5153 52.9567 15.3767 52.7382 15.1589L51.2683 13.6939C51.8046 13.6345 52.2615 13.5356 52.6588 13.3772C53.2547 13.1396 53.8506 12.7437 54.4465 12.2092L52.4999 10.4472C52.182 10.7244 51.8841 10.9224 51.5861 11.0609C51.2882 11.1797 50.8512 11.2589 50.3149 11.2589C49.7388 11.2589 49.2819 11.1203 48.9443 10.8234C48.6066 10.5264 48.4477 10.1701 48.4477 9.75434H54.8041V8.42794C54.8041 7.55687 54.6253 6.76499 54.2479 6.0721C53.8705 5.3792 53.3341 4.82489 52.5992 4.42895C51.8841 4.01321 51.0101 3.81524 50.0169 3.81524C48.6066 3.81524 47.4545 4.25078 46.5805 5.12184C45.925 5.77515 45.5277 6.60662 45.3489 7.63606C45.0311 7.14114 44.8325 6.48784 44.8325 5.97311V1.89494C44.8325 1.20204 45.4085 0.62793 46.0839 0.62793H50.1559C50.8512 0.62793 51.8046 1.02387 52.3012 1.51879L59.3131 8.52692C59.5316 8.76449 59.6707 9.08124 59.6707 9.41779C59.6707 9.77413 59.5316 10.0909 59.3131 10.3285Z" fill="white"/>
<path d="M59.3131 10.3285L54.5061 15.1589C54.2677 15.3767 53.9499 15.5153 53.6122 15.5153C53.2746 15.5153 52.9567 15.3767 52.7382 15.1589L51.2683 13.6939C51.8046 13.6345 52.2615 13.5356 52.6588 13.3772C53.2547 13.1396 53.8506 12.7437 54.4465 12.2092L52.4999 10.4472C52.182 10.7244 51.8841 10.9224 51.5861 11.0609C51.2882 11.1797 50.8512 11.2589 50.3149 11.2589C49.7388 11.2589 49.2819 11.1203 48.9443 10.8234C48.6066 10.5264 48.4477 10.1701 48.4477 9.75434H54.8041V8.42794C54.8041 7.55687 54.6253 6.76499 54.2479 6.0721C53.8705 5.3792 53.3341 4.82489 52.5992 4.42895C51.8841 4.01321 51.0101 3.81524 50.0169 3.81524C48.6066 3.81524 47.4545 4.25078 46.5805 5.12184C45.925 5.77515 45.5277 6.60662 45.3489 7.63606C45.0311 7.14114 44.8325 6.48784 44.8325 5.97311V1.89494C44.8325 1.20204 45.4085 0.62793 46.0839 0.62793H50.1559C50.8512 0.62793 51.8046 1.02387 52.3012 1.51879L59.3131 8.52692C59.5316 8.76449 59.6707 9.08124 59.6707 9.41779C59.6707 9.77413 59.5316 10.0909 59.3131 10.3285Z" fill="white"/>
</svg>
