<svg width="49" height="18" viewBox="0 0 49 18" fill="none" xmlns="http://www.w3.org/2000/svg">
<path d="M35.0669 7.2925H33.3376V13.1386C33.3376 13.248 33.2424 13.3418 33.1313 13.3418H31.7986C31.6876 13.3418 31.5924 13.248 31.5924 13.1386V7.2925H29.8472C29.7996 7.2925 29.7362 7.27687 29.7044 7.24561C29.6727 7.21434 29.641 7.16745 29.641 7.10492V6.07326C29.641 6.02636 29.6568 5.96384 29.7044 5.93258C29.7362 5.90131 29.7996 5.87005 29.8472 5.88568H35.0669C35.1779 5.88568 35.2731 5.96384 35.2731 6.07326V7.10492C35.2731 7.21434 35.1779 7.2925 35.0669 7.2925Z" fill="white"/>
<path d="M40.6197 13.2949C39.9375 13.3887 39.2394 13.4356 38.5572 13.42C37.2404 13.42 36.0823 13.0917 36.0823 11.2629V7.93339C36.0823 6.10453 37.2563 5.7919 38.5731 5.7919C39.2553 5.77627 39.9375 5.82317 40.6197 5.91696C40.7625 5.93259 40.826 5.99511 40.826 6.12016V7.05804C40.826 7.16746 40.7308 7.26125 40.6197 7.26125H38.4779C38.002 7.26125 37.8274 7.41756 37.8274 7.94902V8.85564H40.5404C40.6515 8.85564 40.7467 8.94943 40.7467 9.05885V10.0124C40.7467 10.1218 40.6515 10.2156 40.5404 10.2156H37.8274V11.2785C37.8274 11.7943 38.002 11.9663 38.4779 11.9663H40.6197C40.7308 11.9663 40.826 12.0601 40.826 12.1695V13.1074C40.826 13.2168 40.7625 13.2793 40.6197 13.2949Z" fill="white"/>
<path d="M48.2985 13.3418H46.6803C46.5692 13.3575 46.4581 13.2949 46.4106 13.1855L44.9985 10.9971L43.7293 13.1386C43.6659 13.2637 43.5865 13.3418 43.4755 13.3418H41.9683C41.9365 13.3418 41.889 13.3418 41.8572 13.3106C41.8255 13.2793 41.8096 13.248 41.8096 13.2011C41.8096 13.1699 41.8255 13.1542 41.8255 13.1386L44.0308 9.51215L41.7938 6.07327C41.7779 6.05764 41.7779 6.02637 41.7779 6.01074C41.7779 5.93259 41.8572 5.87006 41.9366 5.88569H43.6024C43.7135 5.88569 43.7928 5.97948 43.8562 6.07327L45.1572 8.10534L46.4264 6.07327C46.474 5.96385 46.5692 5.90132 46.6803 5.88569H48.1875C48.2668 5.88569 48.3461 5.93259 48.3461 6.01074C48.3461 6.02637 48.3302 6.05764 48.3302 6.07327L46.1091 9.54342L48.4254 13.1386C48.4413 13.1699 48.4572 13.2011 48.4572 13.2324C48.4413 13.2949 48.3937 13.3418 48.2985 13.3418Z" fill="white"/>
<path d="M27.1977 5.90133C27.1184 5.90133 27.0549 5.94822 27.039 6.02638L25.5636 11.4192C25.5477 11.5286 25.516 11.5755 25.4208 11.5755C25.3256 11.5755 25.2939 11.5286 25.278 11.4192L23.8025 6.02638C23.7867 5.94822 23.7232 5.90133 23.6439 5.90133H22.1843C22.1367 5.90133 22.0891 5.91696 22.0574 5.96386C22.0256 5.99512 22.0098 6.04201 22.0256 6.08891C22.0256 6.08891 23.8343 12.2789 23.8501 12.3414C24.0881 13.0761 24.6751 13.4356 25.4208 13.4356C26.1347 13.4669 26.7852 13.0136 26.9915 12.3414C27.0232 12.2633 28.7842 6.08891 28.7842 6.08891C28.8001 6.04201 28.7842 5.99512 28.7525 5.96386C28.7208 5.93259 28.6732 5.90133 28.6256 5.90133H27.1977Z" fill="white"/>
<path d="M18.9478 0.883667H3.7647C3.20942 0.883667 2.70173 1.18066 2.43202 1.63397C2.14645 2.10291 2.13058 2.68127 2.38442 3.15021L3.90749 5.9951H1.14693C0.797898 5.9951 0.464727 6.16705 0.274344 6.46404C0.0839607 6.76104 0.0839606 7.13619 0.242613 7.44881L5.12912 16.5462C5.30363 16.8745 5.65267 17.0777 6.01757 17.0777C6.38247 17.0777 6.73151 16.8745 6.90603 16.5462L8.23871 14.0765L9.90456 17.1871C10.1743 17.6873 10.7137 17.9999 11.2848 17.9999C11.856 17.9999 12.3954 17.6873 12.6651 17.1871L20.2805 3.07205C20.5343 2.60311 20.5184 2.04038 20.2329 1.60271C19.979 1.1494 19.4872 0.883667 18.9478 0.883667ZM12.1574 6.83919L8.82572 12.9979C8.71467 13.2168 8.49255 13.3418 8.23871 13.3418C7.98487 13.3418 7.76275 13.2011 7.65169 12.9979L4.36758 6.90172C4.27239 6.71414 4.27239 6.49531 4.38345 6.30773C4.49451 6.12015 4.70075 6.01073 4.907 6.01073H11.6339C11.8401 6.01073 12.0305 6.10452 12.1257 6.27647C12.2526 6.44841 12.2526 6.66725 12.1574 6.83919Z" fill="white"/>
</svg>
